<?xml version="1.0" encoding="utf-8"?>
<!-- Generator: Adobe Illustrator 25.0.0, SVG Export Plug-In . SVG Version: 6.00 Build 0)  -->
<svg version="1.1" id="Layer_1" xmlns="http://www.w3.org/2000/svg" xmlns:xlink="http://www.w3.org/1999/xlink" x="0px" y="0px"
	 viewBox="0 0 1000 1000" style="enable-background:new 0 0 1000 1000;" xml:space="preserve">
<style type="text/css">
	.st0{fill:none;stroke:#FFFFFF;stroke-miterlimit:10;}
	.st1{fill:none;stroke:#FFFFFF;}
	.st2{font-family:'SegoeUI-Light';}
	.st3{font-size:102.3479px;}
	.st4{letter-spacing:3.94;}
</style>
<g>
	<rect x="0.5" y="0.5" width="999" height="999"/>
	<path d="M999,1v998H1V1H999 M1000,0H0v1000h1000V0L1000,0z"/>
</g>
<g>
	<g>
		<line class="st0" x1="431.2" y1="496.57" x2="433.55" y2="101.25"/>
		<line class="st0" x1="526.42" y1="497.12" x2="528.76" y2="101.8"/>
		<line class="st0" x1="582.47" y1="416.5" x2="575.5" y2="61.5"/>
		<line class="st0" x1="575.08" y1="61.94" x2="528.5" y2="101.5"/>
		<line class="st0" x1="476.91" y1="61.94" x2="432.37" y2="101.25"/>
		<line class="st0" x1="528.76" y1="101.8" x2="432.37" y2="101.25"/>
		<line class="st0" x1="476.91" y1="61.94" x2="575.08" y2="61.94"/>
		<line class="st0" x1="582.47" y1="416.5" x2="900.48" y2="657.18"/>
		<line class="st0" x1="526.5" y1="497.5" x2="842.51" y2="731.67"/>
		<line class="st0" x1="575.08" y1="591.69" x2="846.5" y2="792.5"/>
		<line class="st0" x1="846.73" y1="792.15" x2="841.88" y2="733.4"/>
		<line class="st0" x1="906.04" y1="715" x2="901.19" y2="656.26"/>
		<line class="st0" x1="842.51" y1="731.67" x2="901.19" y2="656.26"/>
		<line class="st0" x1="906.04" y1="715" x2="846.73" y2="792.15"/>
		<line class="st0" x1="500.5" y1="637.5" x2="527.01" y2="723.82"/>
		<line class="st0" x1="590.35" y1="603.6" x2="624.26" y2="717.83"/>
		<line class="st0" x1="624.26" y1="717.83" x2="525.9" y2="724.17"/>
		<line class="st0" x1="575.08" y1="591.69" x2="203.79" y2="809.68"/>
		<line class="st0" x1="526.42" y1="497.12" x2="153.14" y2="730.16"/>
		<line class="st0" x1="431.5" y1="496.5" x2="94.5" y2="713.5"/>
		<line class="st0" x1="94.18" y1="713.02" x2="151.71" y2="728.98"/>
		<line class="st0" x1="146.88" y1="794.7" x2="204.41" y2="810.65"/>
		<line class="st0" x1="153.14" y1="730.16" x2="204.41" y2="810.65"/>
		<line class="st0" x1="146.88" y1="794.7" x2="94.18" y2="713.02"/>
		<line class="st0" x1="624.26" y1="717.83" x2="641.48" y2="641.95"/>
	</g>
	<text transform="matrix(1.014 0 0 1 328.7881 897.4766)" class="st1 st2 st3 st4">DOLOS</text>
</g>
</svg>
