<?xml version="1.0" standalone="no"?>
<!DOCTYPE svg PUBLIC "-//W3C//DTD SVG 20010904//EN"
 "http://www.w3.org/TR/2001/REC-SVG-20010904/DTD/svg10.dtd">
<svg version="1.0" xmlns="http://www.w3.org/2000/svg"
 width="500.000000pt" height="500.000000pt" viewBox="0 0 500.000000 500.000000"
 preserveAspectRatio="xMidYMid meet">
<metadata>
Created by potrace 1.16, written by Peter Selinger 2001-2019
</metadata>
<g transform="translate(0.000000,500.000000) scale(0.100000,-0.100000)"
fill="#000000" stroke="none">
<path d="M1309 4181 l-29 -30 2 -1175 3 -1175 23 -23 23 -23 894 -3 c1003 -3
945 -7 965 67 12 46 14 851 2 851 -5 0 -18 -20 -30 -45 -21 -44 -22 -54 -22
-425 0 -365 -1 -380 -19 -390 -26 -13 -1750 -14 -1771 0 -13 8 -15 149 -15
1170 0 1021 2 1162 15 1170 16 11 1429 14 1468 4 21 -6 22 -10 22 -145 0 -129
1 -140 23 -164 22 -27 24 -27 150 -26 l127 2 1 -333 1 -333 26 55 27 55 0 275
c0 210 -3 284 -14 315 -21 58 -287 328 -340 343 -27 9 -245 12 -770 12 l-733
0 -29 -29z m1700 -309 c-58 -2 -96 1 -105 9 -10 8 -14 38 -13 113 l0 101 105
-110 104 -110 -91 -3z"/>
<path d="M2294 3735 c-3 -8 -3 -19 1 -25 10 -16 611 -14 617 3 14 36 3 37
-308 37 -257 0 -305 -2 -310 -15z"/>
<path d="M2294 3575 c-3 -8 -3 -19 1 -25 10 -16 611 -14 617 3 14 36 3 37
-308 37 -257 0 -305 -2 -310 -15z"/>
<path d="M2294 3415 c-3 -8 -3 -19 1 -25 10 -16 611 -14 617 3 14 36 3 37
-308 37 -257 0 -305 -2 -310 -15z"/>
<path d="M2300 3076 c-6 -9 -9 -20 -5 -26 4 -6 110 -10 311 -10 l305 0 -3 23
-3 22 -296 3 c-251 2 -298 0 -309 -12z"/>
<path d="M2300 2915 c-6 -8 -9 -19 -5 -25 4 -6 110 -10 310 -10 248 0 304 2
308 14 13 33 -14 36 -309 36 -243 0 -294 -2 -304 -15z"/>
<path d="M2300 2755 c-10 -12 -10 -18 0 -30 11 -13 56 -15 295 -15 156 0 290
3 299 6 9 3 16 14 16 24 0 10 -7 21 -16 24 -9 3 -143 6 -299 6 -239 0 -284 -2
-295 -15z"/>
<path d="M2294 2366 c-3 -8 -3 -20 1 -26 4 -6 109 -10 311 -10 l305 0 -3 23
-3 22 -303 3 c-258 2 -303 0 -308 -12z"/>
<path d="M2300 2205 c-10 -12 -10 -18 0 -30 11 -13 56 -15 295 -15 156 0 290
3 299 6 9 3 16 14 16 24 0 10 -7 21 -16 24 -9 3 -143 6 -299 6 -239 0 -284 -2
-295 -15z"/>
<path d="M2300 2045 c-10 -12 -10 -18 0 -30 11 -13 56 -15 295 -15 156 0 290
3 299 6 9 3 16 14 16 24 0 10 -7 21 -16 24 -9 3 -143 6 -299 6 -239 0 -284 -2
-295 -15z"/>
<path d="M60 815 l0 -785 289 0 c158 0 312 5 342 10 161 31 275 151 299 315
12 87 13 837 1 922 -22 149 -113 258 -255 306 -42 14 -97 17 -363 17 l-313 0
0 -785z m700 697 c63 -33 125 -96 152 -156 l23 -51 0 -486 0 -486 -35 -69
c-38 -73 -103 -133 -170 -156 -22 -7 -141 -13 -327 -15 l-293 -4 0 726 0 726
303 -3 c294 -3 303 -4 347 -26z"/>
<path d="M342 818 l3 -493 153 -3 153 -3 30 30 29 29 0 432 c0 453 -2 477 -45
494 -9 3 -86 6 -171 6 l-154 0 2 -492z m306 0 l-3 -433 -122 -3 -123 -3 0 436
0 435 125 0 125 0 -2 -432z"/>
<path d="M1337 1590 c-115 -21 -214 -98 -265 -208 l-27 -57 0 -515 0 -515 28
-57 c30 -61 101 -138 151 -164 71 -36 120 -44 279 -44 182 0 237 11 313 65 62
44 108 102 136 173 22 56 22 68 26 493 2 259 -1 465 -7 508 -13 95 -52 170
-118 231 -82 75 -137 92 -318 96 -82 1 -172 -1 -198 -6z m394 -77 c98 -44 161
-128 179 -240 14 -82 13 -855 -1 -928 -19 -105 -76 -182 -168 -227 -43 -21
-59 -23 -236 -23 -183 0 -192 1 -239 25 -64 32 -130 108 -153 173 -16 47 -18
93 -18 527 0 473 0 475 23 524 31 69 66 112 115 143 68 43 125 53 297 50 131
-3 162 -6 201 -24z"/>
<path d="M1353 1286 l-28 -24 -3 -419 c-2 -230 0 -433 3 -451 12 -65 29 -72
179 -72 117 0 137 2 157 19 l24 19 3 438 c2 302 -1 447 -8 465 -17 40 -49 49
-180 49 -111 0 -121 -2 -147 -24z m275 -474 l2 -433 -122 3 -123 3 -3 420 c-1
231 0 426 3 433 3 9 34 12 122 10 l118 -3 3 -433z"/>
<path d="M2020 815 l0 -785 430 0 430 0 0 175 0 175 -255 0 -255 0 0 610 0
610 -175 0 -175 0 0 -785z m290 115 l0 -610 255 0 255 0 0 -115 0 -115 -370 0
-370 0 0 725 0 725 115 0 115 0 0 -610z"/>
<path d="M3218 1590 c-109 -19 -212 -100 -264 -205 l-29 -60 0 -510 0 -510 28
-60 c47 -100 126 -169 227 -199 81 -24 347 -22 423 3 133 43 222 146 248 285
6 36 9 225 7 514 -3 449 -4 458 -26 514 -41 101 -111 171 -210 209 -48 18 -81
22 -207 25 -82 2 -171 -1 -197 -6z m399 -79 c61 -27 126 -93 156 -159 22 -46
22 -56 22 -537 l0 -490 -27 -57 c-34 -74 -95 -132 -166 -158 -52 -20 -73 -21
-232 -18 -167 3 -177 4 -226 30 -56 30 -102 77 -136 141 -23 42 -23 42 -23
547 l0 505 23 46 c41 84 117 146 209 169 21 5 108 8 193 6 136 -2 161 -5 207
-25z"/>
<path d="M3237 1290 l-27 -21 0 -453 0 -453 23 -21 c22 -20 33 -22 158 -22
198 0 179 -53 179 491 0 422 -1 445 -20 469 -18 24 -23 25 -152 28 -124 3
-135 2 -161 -18z m271 -477 l2 -433 -120 0 -120 0 0 435 0 436 118 -3 117 -3
3 -432z"/>
<path d="M4219 1586 c-108 -29 -218 -130 -277 -253 -31 -65 -37 -89 -40 -163
-5 -94 12 -181 50 -260 27 -56 111 -141 167 -170 65 -32 186 -60 266 -60 99 0
109 -9 113 -104 6 -112 -2 -140 -46 -168 -35 -22 -48 -23 -277 -28 l-240 -5
-3 -173 -2 -173 267 3 268 3 76 32 c136 56 213 126 267 241 25 52 27 69 30
202 5 199 -14 275 -91 374 -73 93 -169 134 -336 145 -107 7 -116 9 -138 35
-34 39 -32 113 3 155 l26 31 249 0 249 0 0 175 0 175 -267 -1 c-180 0 -283 -4
-314 -13z m521 -161 l0 -115 -225 0 -224 0 -36 -31 c-20 -18 -43 -45 -51 -60
-21 -42 -18 -117 9 -169 28 -56 80 -79 182 -80 154 -1 265 -54 330 -158 48
-77 58 -132 54 -302 -4 -139 -5 -147 -34 -198 -35 -65 -116 -141 -182 -172
-92 -44 -136 -50 -360 -50 l-213 0 0 114 0 115 218 3 c210 3 218 4 261 28 77
43 86 64 86 194 0 92 -3 117 -18 140 -24 36 -73 56 -138 56 -285 0 -451 164
-438 431 9 161 126 313 279 360 14 4 132 8 263 8 l237 1 0 -115z"/>
</g>
</svg>
