<?xml version="1.0" encoding="utf-8"?>
<!-- Generator: Adobe Illustrator 25.0.0, SVG Export Plug-In . SVG Version: 6.00 Build 0)  -->
<svg version="1.1" id="Layer_1" xmlns="http://www.w3.org/2000/svg" xmlns:xlink="http://www.w3.org/1999/xlink" x="0px" y="0px"
	 viewBox="0 0 1000 1000" style="enable-background:new 0 0 1000 1000;" xml:space="preserve">
<style type="text/css">
	.st0{fill:none;stroke:#000000;stroke-miterlimit:10;}
	.st1{font-family:'SegoeUI-Light';}
	.st2{font-size:108.1086px;}
	.st3{letter-spacing:3.96;}
</style>
<g>
	<g>
		<line class="st0" x1="427.52" y1="496.38" x2="429.99" y2="78.8"/>
		<line class="st0" x1="527.83" y1="496.96" x2="530.3" y2="79.38"/>
		<line class="st0" x1="586.88" y1="411.8" x2="579.5" y2="37.5"/>
		<line class="st0" x1="579.09" y1="37.29" x2="530.5" y2="79.5"/>
		<line class="st0" x1="475.68" y1="37.29" x2="428.76" y2="78.8"/>
		<line class="st0" x1="530.3" y1="79.38" x2="428.76" y2="78.8"/>
		<line class="st0" x1="475.68" y1="37.29" x2="579.09" y2="37.29"/>
		<line class="st0" x1="586.88" y1="411.8" x2="921.89" y2="666.02"/>
		<line class="st0" x1="527.5" y1="496.5" x2="860.82" y2="744.71"/>
		<line class="st0" x1="579.09" y1="596.85" x2="865.5" y2="808.5"/>
		<line class="st0" x1="865.26" y1="808.59" x2="862.5" y2="742.5"/>
		<line class="st0" x1="927.74" y1="727.1" x2="922.63" y2="665.05"/>
		<line class="st0" x1="860.82" y1="744.71" x2="922.63" y2="665.05"/>
		<line class="st0" x1="927.74" y1="727.1" x2="865.26" y2="808.59"/>
		<line class="st0" x1="500.5" y1="644.5" x2="528.46" y2="736.41"/>
		<line class="st0" x1="595.18" y1="609.43" x2="630.9" y2="730.09"/>
		<line class="st0" x1="630.9" y1="730.09" x2="527.28" y2="736.78"/>
		<line class="st0" x1="579.09" y1="596.85" x2="187.95" y2="827.11"/>
		<line class="st0" x1="527.83" y1="496.96" x2="134.6" y2="743.11"/>
		<line class="st0" x1="427.5" y1="496.5" x2="72.5" y2="725.5"/>
		<line class="st0" x1="72.49" y1="725.01" x2="134.5" y2="743.5"/>
		<line class="st0" x1="128.01" y1="811.28" x2="188.61" y2="828.14"/>
		<line class="st0" x1="134.6" y1="743.11" x2="188.61" y2="828.14"/>
		<line class="st0" x1="128.01" y1="811.28" x2="72.49" y2="725.01"/>
		<line class="st0" x1="630.9" y1="730.09" x2="649.05" y2="649.94"/>
	</g>
	<text transform="matrix(1.0112 0 0 1 319.636 919.8486)" class="st1 st2 st3">DOLOS</text>
</g>
</svg>
